<svg width="192" height="187" viewBox="0 0 192 187" fill="none" xmlns="http://www.w3.org/2000/svg">
<rect width="192" height="187" fill="url(#paint0_linear_752_2233)"/>
<path d="M109.028 39.2256C107.108 41.3413 104.983 43.8597 102.667 46.6896C96.3121 54.4566 92.1141 61.4785 82.1796 78.1093C81.5681 79.1323 81.9011 74.1557 81.9354 73.6503C82.7163 64.0053 84.818 54.507 84.3725 44.7961C83.0786 31.0475 73.9177 46.9552 71.1544 54.0353C68.3971 60.9784 66.4692 68.4843 66.1222 76.0245C65.979 78.2889 65.8872 88.8645 68.6187 88.7734C60.1928 71.0964 90.1801 8.87859 82.1545 60.5506C81.7126 66.3434 80.7486 71.267 80.7174 77.9096C80.7076 79.1659 81.4384 80.2386 82.6423 79.6241C83.6497 78.9895 84.2127 77.8314 84.8719 76.8382C86.7398 73.8532 88.5637 70.834 90.4788 67.8808C95.536 60.0135 100.703 52.1948 106.517 44.9234C108.102 42.8975 109.734 41.079 111.484 39.2256H109.028Z" fill="url(#paint1_radial_752_2233)"/>
<path d="M120.135 39.2256C119.167 49.6986 117.367 60.1017 115.201 70.4023C113.232 79.7625 111.614 88.7522 108.18 99.2384C107.839 100.281 107.062 102.003 107.471 103.081C107.533 103.244 107.758 103.278 107.862 103.137C109.362 101.092 113.277 86.8691 114.519 81.517C119.541 59.8755 121.84 46.4759 121.806 39.2256H120.135Z" fill="url(#paint2_radial_752_2233)"/>
<path d="M29.3585 125.316H27.8679L30.045 111.508L35.0659 122.55L40.1848 111.489L42.2246 125.316H40.734L39.4984 116.215L35.0462 125.865L30.653 116.215L29.3585 125.316Z" fill="white"/>
<path d="M59.2933 125.316L57.7635 121.629H52.1934L50.6244 125.316H49.0161L55.0373 111.606L60.9016 125.316H59.2933ZM52.7622 120.256H57.1947L54.9981 115.019L52.7622 120.256Z" fill="white"/>
<path d="M74.206 113.607H71.0287V125.316H69.5774V113.607H66.4001V112.234H74.206V113.607Z" fill="white"/>
<path d="M90.7716 113.313V115.117C90.2485 114.594 89.6798 114.189 89.0652 113.901C88.3199 113.561 87.5681 113.391 86.8097 113.391C85.3061 113.391 84.0509 113.921 83.0441 114.98C82.0504 116.026 81.5535 117.314 81.5535 118.844C81.5535 120.491 82.0961 121.792 83.1814 122.747C84.2797 123.701 85.4957 124.178 86.8294 124.178C87.6662 124.178 88.4768 123.976 89.2614 123.57C89.8105 123.296 90.3139 122.93 90.7716 122.472V124.276C89.5817 125.126 88.2676 125.551 86.8294 125.551C84.8942 125.551 83.2794 124.904 81.985 123.61C80.7036 122.315 80.0629 120.72 80.0629 118.824C80.0629 116.876 80.7101 115.254 82.0046 113.96C83.3121 112.666 84.9465 112.018 86.9078 112.018C88.3461 112.018 89.634 112.45 90.7716 113.313Z" fill="white"/>
<path d="M100.195 112.234V117.549H106.903V112.234H108.354V125.316H106.903V118.922H100.195V125.316H98.7439V112.234H100.195Z" fill="white"/>
<path d="M119.791 125.316V119.687L115.495 112.234H117.182L120.516 118.079L123.89 112.234H125.576L121.242 119.687V125.316H119.791Z" fill="white"/>
<path d="M143.167 123.61C141.859 124.904 140.251 125.551 138.342 125.551C136.433 125.551 134.818 124.904 133.497 123.61C132.19 122.315 131.536 120.707 131.536 118.785C131.536 116.85 132.196 115.241 133.517 113.96C134.838 112.666 136.446 112.018 138.342 112.018C140.238 112.018 141.846 112.666 143.167 113.96C144.487 115.241 145.147 116.85 145.147 118.785C145.147 120.707 144.487 122.315 143.167 123.61ZM142.107 114.96C141.074 113.914 139.819 113.391 138.342 113.391C136.864 113.391 135.609 113.914 134.576 114.96C133.543 116.006 133.027 117.281 133.027 118.785C133.027 120.288 133.543 121.563 134.576 122.609C135.609 123.655 136.864 124.178 138.342 124.178C139.819 124.178 141.074 123.655 142.107 122.609C143.14 121.563 143.657 120.288 143.657 118.785C143.657 117.281 143.14 116.006 142.107 114.96Z" fill="white"/>
<path d="M154.561 112.234V120.256C154.561 120.753 154.567 121.138 154.58 121.413C154.606 121.687 154.698 122.027 154.855 122.433C155.025 122.825 155.273 123.158 155.6 123.433C156.188 123.93 156.908 124.178 157.757 124.178C158.607 124.178 159.326 123.93 159.915 123.433C160.242 123.158 160.484 122.825 160.641 122.433C160.811 122.027 160.902 121.687 160.915 121.413C160.941 121.138 160.954 120.753 160.954 120.256V112.234H162.406V120.648C162.406 121.982 162.131 123.028 161.582 123.786C161.177 124.335 160.641 124.767 159.974 125.081C159.32 125.394 158.581 125.551 157.757 125.551C156.934 125.551 156.188 125.394 155.522 125.081C154.868 124.767 154.338 124.335 153.933 123.786C153.384 123.028 153.109 121.982 153.109 120.648V112.234H154.561Z" fill="white"/>
<path d="M55.7343 133.182H56.1906V135.639H55.7343V133.182ZM54.4638 135.639H54.0076V133.182H54.4638V135.639ZM55.7694 134.586H54.4252V134.196H55.7694V134.586Z" fill="#D7A69C"/>
<path d="M59.1232 135.674C58.9313 135.674 58.7547 135.642 58.5932 135.579C58.4318 135.516 58.2914 135.428 58.172 135.316C58.0527 135.201 57.9603 135.068 57.8948 134.916C57.8293 134.761 57.7965 134.593 57.7965 134.41C57.7965 134.228 57.8293 134.061 57.8948 133.909C57.9603 133.754 58.0527 133.621 58.172 133.508C58.2914 133.394 58.4318 133.305 58.5932 133.242C58.7547 133.179 58.9301 133.147 59.1197 133.147C59.3115 133.147 59.487 133.179 59.6461 133.242C59.8076 133.305 59.9479 133.394 60.0673 133.508C60.1866 133.621 60.279 133.754 60.3445 133.909C60.4101 134.061 60.4428 134.228 60.4428 134.41C60.4428 134.593 60.4101 134.761 60.3445 134.916C60.279 135.07 60.1866 135.204 60.0673 135.316C59.9479 135.428 59.8076 135.516 59.6461 135.579C59.487 135.642 59.3127 135.674 59.1232 135.674ZM59.1197 135.274C59.2437 135.274 59.3583 135.253 59.4636 135.211C59.5689 135.169 59.6602 135.109 59.7374 135.032C59.8146 134.952 59.8742 134.861 59.9164 134.758C59.9608 134.653 59.983 134.537 59.983 134.41C59.983 134.284 59.9608 134.169 59.9164 134.067C59.8742 133.961 59.8146 133.87 59.7374 133.793C59.6602 133.713 59.5689 133.652 59.4636 133.61C59.3583 133.568 59.2437 133.547 59.1197 133.547C58.9957 133.547 58.881 133.568 58.7757 133.61C58.6728 133.652 58.5815 133.713 58.502 133.793C58.4247 133.87 58.3639 133.961 58.3195 134.067C58.2773 134.169 58.2563 134.284 58.2563 134.41C58.2563 134.534 58.2773 134.649 58.3195 134.754C58.3639 134.86 58.4247 134.952 58.502 135.032C58.5792 135.109 58.6704 135.169 58.7757 135.211C58.881 135.253 58.9957 135.274 59.1197 135.274Z" fill="#D7A69C"/>
<path d="M62.0495 135.639V133.182H62.4251L63.499 134.976H63.3025L64.3589 133.182H64.7344L64.7379 135.639H64.3063L64.3027 133.859H64.394L63.4955 135.358H63.292L62.3794 133.859H62.4847V135.639H62.0495Z" fill="#D7A69C"/>
<path d="M66.9458 134.203H68.1672V134.579H66.9458V134.203ZM66.9809 135.256H68.3672V135.639H66.5246V133.182H68.3181V133.565H66.9809V135.256Z" fill="#D7A69C"/>
<path d="M73.2291 135.674C73.042 135.674 72.8676 135.644 72.7062 135.583C72.5471 135.52 72.4079 135.432 72.2885 135.319C72.1716 135.205 72.0803 135.07 72.0148 134.916C71.9493 134.761 71.9165 134.593 71.9165 134.41C71.9165 134.228 71.9493 134.059 72.0148 133.905C72.0803 133.751 72.1727 133.617 72.2921 133.505C72.4114 133.39 72.5506 133.303 72.7097 133.242C72.8688 133.179 73.0431 133.147 73.2326 133.147C73.4339 133.147 73.6175 133.182 73.7837 133.252C73.9498 133.32 74.0902 133.422 74.2048 133.558L73.91 133.835C73.8211 133.739 73.7217 133.668 73.6117 133.621C73.5017 133.572 73.3824 133.547 73.2537 133.547C73.125 133.547 73.0069 133.568 72.8992 133.61C72.7939 133.652 72.7015 133.712 72.622 133.789C72.5448 133.866 72.4839 133.958 72.4395 134.063C72.3973 134.168 72.3763 134.284 72.3763 134.41C72.3763 134.537 72.3973 134.653 72.4395 134.758C72.4839 134.863 72.5448 134.954 72.622 135.032C72.7015 135.109 72.7939 135.169 72.8992 135.211C73.0069 135.253 73.125 135.274 73.2537 135.274C73.3824 135.274 73.5017 135.25 73.6117 135.204C73.7217 135.155 73.8211 135.081 73.91 134.983L74.2048 135.263C74.0902 135.397 73.9498 135.498 73.7837 135.569C73.6175 135.639 73.4327 135.674 73.2291 135.674Z" fill="#D7A69C"/>
<path d="M77.4919 133.182H77.9481V135.639H77.4919V133.182ZM76.2214 135.639H75.7651V133.182H76.2214V135.639ZM77.527 134.586H76.1828V134.196H77.527V134.586Z" fill="#D7A69C"/>
<path d="M79.3821 135.639L80.4876 133.182H80.9369L82.0459 135.639H81.5686L80.6175 133.424H80.8L79.8524 135.639H79.3821ZM79.891 135.07L80.0138 134.712H81.3405L81.4633 135.07H79.891Z" fill="#D7A69C"/>
<path d="M83.4815 135.639V133.182H83.857L85.3977 135.074H85.2117V133.182H85.6645V135.639H85.2889L83.7482 133.747H83.9342V135.639H83.4815Z" fill="#D7A69C"/>
<path d="M88.5935 135.674C88.4017 135.674 88.225 135.644 88.0636 135.583C87.9045 135.52 87.7653 135.432 87.6459 135.319C87.5266 135.205 87.4342 135.07 87.3687 134.916C87.3032 134.761 87.2704 134.593 87.2704 134.41C87.2704 134.228 87.3032 134.059 87.3687 133.905C87.4342 133.751 87.5266 133.617 87.6459 133.505C87.7676 133.39 87.9092 133.303 88.0706 133.242C88.2321 133.179 88.4087 133.147 88.6006 133.147C88.8088 133.147 88.996 133.181 89.1621 133.249C89.3306 133.317 89.4721 133.416 89.5868 133.547L89.299 133.828C89.2031 133.732 89.0989 133.662 88.9866 133.617C88.8767 133.57 88.755 133.547 88.6216 133.547C88.4929 133.547 88.3736 133.568 88.2636 133.61C88.1537 133.652 88.0589 133.712 87.9794 133.789C87.8998 133.866 87.8378 133.958 87.7933 134.063C87.7512 134.168 87.7302 134.284 87.7302 134.41C87.7302 134.534 87.7512 134.649 87.7933 134.754C87.8378 134.86 87.8998 134.952 87.9794 135.032C88.0589 135.109 88.1525 135.169 88.2601 135.211C88.3678 135.253 88.4871 135.274 88.6181 135.274C88.7398 135.274 88.8568 135.255 88.9691 135.218C89.0837 135.178 89.1925 135.112 89.2955 135.021L89.5552 135.362C89.4265 135.465 89.2768 135.543 89.106 135.597C88.9375 135.648 88.7667 135.674 88.5935 135.674ZM89.1235 135.302V134.382H89.5552V135.362L89.1235 135.302Z" fill="#D7A69C"/>
<path d="M91.7012 134.203H92.9226V134.579H91.7012V134.203ZM91.7363 135.256H93.1226V135.639H91.2801V133.182H93.0735V133.565H91.7363V135.256Z" fill="#D7A69C"/>
<path d="M95.516 135.674C95.3241 135.674 95.1404 135.647 94.965 135.593C94.7895 135.537 94.6503 135.466 94.5473 135.379L94.7052 135.025C94.8035 135.102 94.9252 135.166 95.0702 135.218C95.2153 135.269 95.3639 135.295 95.516 135.295C95.6447 135.295 95.7488 135.281 95.8283 135.253C95.9079 135.225 95.9664 135.187 96.0038 135.14C96.0413 135.091 96.06 135.036 96.06 134.976C96.06 134.901 96.0331 134.841 95.9793 134.797C95.9254 134.75 95.8552 134.713 95.7687 134.688C95.6844 134.66 95.5897 134.634 95.4844 134.611C95.3814 134.587 95.2773 134.56 95.172 134.53C95.0691 134.497 94.9743 134.456 94.8877 134.407C94.8035 134.355 94.7345 134.288 94.6807 134.203C94.6269 134.119 94.5999 134.012 94.5999 133.88C94.5999 133.747 94.635 133.625 94.7052 133.515C94.7778 133.403 94.8866 133.314 95.0316 133.249C95.179 133.181 95.3651 133.147 95.5897 133.147C95.7371 133.147 95.8833 133.166 96.0284 133.203C96.1735 133.241 96.2998 133.294 96.4074 133.365L96.2635 133.719C96.1536 133.654 96.0401 133.606 95.9231 133.575C95.8061 133.542 95.6938 133.526 95.5862 133.526C95.4598 133.526 95.3569 133.541 95.2773 133.572C95.2001 133.602 95.1428 133.642 95.1053 133.691C95.0702 133.74 95.0527 133.796 95.0527 133.859C95.0527 133.934 95.0784 133.995 95.1299 134.042C95.1837 134.086 95.2527 134.121 95.337 134.147C95.4236 134.173 95.5195 134.199 95.6248 134.224C95.7301 134.248 95.8342 134.275 95.9371 134.305C96.0424 134.336 96.1372 134.375 96.2214 134.424C96.308 134.474 96.377 134.54 96.4285 134.625C96.4823 134.709 96.5092 134.815 96.5092 134.944C96.5092 135.075 96.4729 135.197 96.4004 135.309C96.3302 135.419 96.2214 135.508 96.074 135.576C95.9266 135.641 95.7406 135.674 95.516 135.674Z" fill="#D7A69C"/>
<path d="M100.599 134.203H101.82V134.579H100.599V134.203ZM100.634 135.256H102.02V135.639H100.178V133.182H101.971V133.565H100.634V135.256Z" fill="#D7A69C"/>
<path d="M104.344 135.639L103.27 133.182H103.765L104.723 135.404H104.439L105.408 133.182H105.864L104.794 135.639H104.344Z" fill="#D7A69C"/>
<path d="M107.668 134.203H108.889V134.579H107.668V134.203ZM107.703 135.256H109.089V135.639H107.246V133.182H109.04V133.565H107.703V135.256Z" fill="#D7A69C"/>
<path d="M110.721 135.639V133.182H111.731C111.949 133.182 112.135 133.217 112.289 133.287C112.446 133.358 112.567 133.458 112.651 133.589C112.735 133.72 112.777 133.876 112.777 134.056C112.777 134.236 112.735 134.392 112.651 134.523C112.567 134.651 112.446 134.751 112.289 134.821C112.135 134.889 111.949 134.923 111.731 134.923H110.973L111.177 134.716V135.639H110.721ZM112.328 135.639L111.707 134.747H112.195L112.819 135.639H112.328ZM111.177 134.765L110.973 134.547H111.71C111.912 134.547 112.063 134.504 112.163 134.417C112.266 134.331 112.318 134.21 112.318 134.056C112.318 133.899 112.266 133.779 112.163 133.694C112.063 133.61 111.912 133.568 111.71 133.568H110.973L111.177 133.344V134.765Z" fill="#D7A69C"/>
<path d="M114.98 135.639V134.667L115.082 134.947L114.015 133.182H114.503L115.359 134.603H115.086L115.949 133.182H116.398L115.331 134.947L115.437 134.667V135.639H114.98Z" fill="#D7A69C"/>
<path d="M118.284 135.639V133.568H117.47V133.182H119.555V133.568H118.74V135.639H118.284Z" fill="#D7A69C"/>
<path d="M122.747 133.182H123.203V135.639H122.747V133.182ZM121.476 135.639H121.02V133.182H121.476V135.639ZM122.782 134.586H121.438V134.196H122.782V134.586Z" fill="#D7A69C"/>
<path d="M124.985 135.639V133.182H125.441V135.639H124.985Z" fill="#D7A69C"/>
<path d="M127.228 135.639V133.182H127.604L129.145 135.074H128.959V133.182H129.412V135.639H129.036L127.495 133.747H127.681V135.639H127.228Z" fill="#D7A69C"/>
<path d="M132.341 135.674C132.149 135.674 131.972 135.644 131.811 135.583C131.652 135.52 131.512 135.432 131.393 135.319C131.274 135.205 131.181 135.07 131.116 134.916C131.05 134.761 131.017 134.593 131.017 134.41C131.017 134.228 131.05 134.059 131.116 133.905C131.181 133.751 131.274 133.617 131.393 133.505C131.515 133.39 131.656 133.303 131.818 133.242C131.979 133.179 132.156 133.147 132.348 133.147C132.556 133.147 132.743 133.181 132.909 133.249C133.078 133.317 133.219 133.416 133.334 133.547L133.046 133.828C132.95 133.732 132.846 133.662 132.734 133.617C132.624 133.57 132.502 133.547 132.369 133.547C132.24 133.547 132.121 133.568 132.011 133.61C131.901 133.652 131.806 133.712 131.726 133.789C131.647 133.866 131.585 133.958 131.54 134.063C131.498 134.168 131.477 134.284 131.477 134.41C131.477 134.534 131.498 134.649 131.54 134.754C131.585 134.86 131.647 134.952 131.726 135.032C131.806 135.109 131.9 135.169 132.007 135.211C132.115 135.253 132.234 135.274 132.365 135.274C132.487 135.274 132.604 135.255 132.716 135.218C132.831 135.178 132.94 135.112 133.043 135.021L133.302 135.362C133.174 135.465 133.024 135.543 132.853 135.597C132.685 135.648 132.514 135.674 132.341 135.674ZM132.871 135.302V134.382H133.302V135.362L132.871 135.302Z" fill="#D7A69C"/>
<defs>
<linearGradient id="paint0_linear_752_2233" x1="192.739" y1="-2.24545" x2="-15.2231" y2="168.454" gradientUnits="userSpaceOnUse">
<stop stop-color="#434343"/>
<stop offset="1" stop-color="#101010"/>
</linearGradient>
<radialGradient id="paint1_radial_752_2233" cx="0" cy="0" r="1" gradientUnits="userSpaceOnUse" gradientTransform="translate(88.7741 63.9998) rotate(90) scale(24.7742 22.7097)">
<stop stop-color="#E7B3A5"/>
<stop offset="1" stop-color="#A2645D"/>
</radialGradient>
<radialGradient id="paint2_radial_752_2233" cx="0" cy="0" r="1" gradientUnits="userSpaceOnUse" gradientTransform="translate(114.581 71.2256) rotate(90) scale(32 7.22581)">
<stop stop-color="#AE847F"/>
<stop offset="1" stop-color="#A2645D"/>
</radialGradient>
</defs>
</svg>
