<svg width="17" height="16" viewBox="0 0 17 16" fill="none" xmlns="http://www.w3.org/2000/svg">
<path d="M6.41858 1.54768C6.16548 0.914919 5.55265 0.5 4.87116 0.5H2.57891C1.7069 0.5 1 1.20675 1 2.07878C1 9.49103 7.00883 15.5 14.4209 15.5C15.2929 15.5 15.9996 14.793 15.9996 13.921L16 11.6283C16 10.9468 15.5852 10.3341 14.9525 10.0809L12.7555 9.20246C12.1871 8.9751 11.54 9.07742 11.0697 9.46933L10.5027 9.94224C9.84049 10.4941 8.86616 10.4502 8.25664 9.84066L6.66004 8.24255C6.05053 7.63302 6.00548 6.65945 6.55731 5.99724L7.03012 5.43025C7.42201 4.95997 7.52524 4.31264 7.29789 3.74425L6.41858 1.54768Z" stroke="#685C56" stroke-linecap="round" stroke-linejoin="round"/>
</svg>
